<mxfile host="Electron" agent="Mozilla/5.0 (Windows NT 10.0; Win64; x64) AppleWebKit/537.36 (KHTML, like Gecko) draw.io/28.1.2 Chrome/138.0.7204.243 Electron/37.4.0 Safari/537.36" version="28.1.2">
  <diagram name="Seite-1" id="B3mxvTwksXzI3-duo697">
    <mxGraphModel dx="1021" dy="560" grid="1" gridSize="10" guides="1" tooltips="1" connect="1" arrows="1" fold="1" page="1" pageScale="1" pageWidth="827" pageHeight="1169" math="0" shadow="0">
      <root>
        <mxCell id="0" />
        <mxCell id="1" parent="0" />
        <mxCell id="QwHv8P3KIeqEhalfA5ab-36" style="edgeStyle=orthogonalEdgeStyle;rounded=0;orthogonalLoop=1;jettySize=auto;html=1;entryX=0.5;entryY=0;entryDx=0;entryDy=0;" edge="1" parent="1" source="F-mNHtvUeDV6_lfB6tj3-1" target="QwHv8P3KIeqEhalfA5ab-6">
          <mxGeometry relative="1" as="geometry" />
        </mxCell>
        <mxCell id="QwHv8P3KIeqEhalfA5ab-37" style="edgeStyle=orthogonalEdgeStyle;rounded=0;orthogonalLoop=1;jettySize=auto;html=1;entryX=0.5;entryY=0;entryDx=0;entryDy=0;" edge="1" parent="1" source="F-mNHtvUeDV6_lfB6tj3-1" target="QwHv8P3KIeqEhalfA5ab-25">
          <mxGeometry relative="1" as="geometry" />
        </mxCell>
        <mxCell id="F-mNHtvUeDV6_lfB6tj3-1" value="START" style="ellipse;whiteSpace=wrap;html=1;aspect=fixed;" parent="1" vertex="1">
          <mxGeometry x="360" y="20" width="80" height="80" as="geometry" />
        </mxCell>
        <mxCell id="QwHv8P3KIeqEhalfA5ab-24" style="edgeStyle=orthogonalEdgeStyle;rounded=0;orthogonalLoop=1;jettySize=auto;html=1;entryX=0.5;entryY=0;entryDx=0;entryDy=0;" edge="1" parent="1" source="QwHv8P3KIeqEhalfA5ab-6" target="QwHv8P3KIeqEhalfA5ab-20">
          <mxGeometry relative="1" as="geometry" />
        </mxCell>
        <mxCell id="QwHv8P3KIeqEhalfA5ab-6" value="Print: Select Operation" style="swimlane;fontStyle=0;childLayout=stackLayout;horizontal=1;startSize=30;horizontalStack=0;resizeParent=1;resizeParentMax=0;resizeLast=0;collapsible=1;marginBottom=0;whiteSpace=wrap;html=1;" vertex="1" parent="1">
          <mxGeometry x="330" y="130" width="140" height="150" as="geometry" />
        </mxCell>
        <mxCell id="QwHv8P3KIeqEhalfA5ab-8" value="1. Add" style="text;strokeColor=none;fillColor=none;align=left;verticalAlign=middle;spacingLeft=4;spacingRight=4;overflow=hidden;points=[[0,0.5],[1,0.5]];portConstraint=eastwest;rotatable=0;whiteSpace=wrap;html=1;" vertex="1" parent="QwHv8P3KIeqEhalfA5ab-6">
          <mxGeometry y="30" width="140" height="30" as="geometry" />
        </mxCell>
        <mxCell id="QwHv8P3KIeqEhalfA5ab-9" value="2. Subtract" style="text;strokeColor=none;fillColor=none;align=left;verticalAlign=middle;spacingLeft=4;spacingRight=4;overflow=hidden;points=[[0,0.5],[1,0.5]];portConstraint=eastwest;rotatable=0;whiteSpace=wrap;html=1;" vertex="1" parent="QwHv8P3KIeqEhalfA5ab-6">
          <mxGeometry y="60" width="140" height="30" as="geometry" />
        </mxCell>
        <mxCell id="QwHv8P3KIeqEhalfA5ab-10" value="3. Multiply" style="text;strokeColor=none;fillColor=none;align=left;verticalAlign=middle;spacingLeft=4;spacingRight=4;overflow=hidden;points=[[0,0.5],[1,0.5]];portConstraint=eastwest;rotatable=0;whiteSpace=wrap;html=1;" vertex="1" parent="QwHv8P3KIeqEhalfA5ab-6">
          <mxGeometry y="90" width="140" height="30" as="geometry" />
        </mxCell>
        <mxCell id="QwHv8P3KIeqEhalfA5ab-16" value="4. Divide" style="text;strokeColor=none;fillColor=none;align=left;verticalAlign=middle;spacingLeft=4;spacingRight=4;overflow=hidden;points=[[0,0.5],[1,0.5]];portConstraint=eastwest;rotatable=0;whiteSpace=wrap;html=1;" vertex="1" parent="QwHv8P3KIeqEhalfA5ab-6">
          <mxGeometry y="120" width="140" height="30" as="geometry" />
        </mxCell>
        <mxCell id="QwHv8P3KIeqEhalfA5ab-45" style="edgeStyle=orthogonalEdgeStyle;rounded=0;orthogonalLoop=1;jettySize=auto;html=1;exitX=0.5;exitY=1;exitDx=0;exitDy=0;entryX=0;entryY=0.5;entryDx=0;entryDy=0;" edge="1" parent="1" source="QwHv8P3KIeqEhalfA5ab-20" target="QwHv8P3KIeqEhalfA5ab-57">
          <mxGeometry relative="1" as="geometry">
            <mxPoint x="530" y="440" as="targetPoint" />
          </mxGeometry>
        </mxCell>
        <mxCell id="QwHv8P3KIeqEhalfA5ab-20" value="User Input:1,2,3 or 4" style="shape=parallelogram;perimeter=parallelogramPerimeter;whiteSpace=wrap;html=1;fixedSize=1;" vertex="1" parent="1">
          <mxGeometry x="320" y="320" width="160" height="60" as="geometry" />
        </mxCell>
        <mxCell id="QwHv8P3KIeqEhalfA5ab-39" style="edgeStyle=orthogonalEdgeStyle;rounded=0;orthogonalLoop=1;jettySize=auto;html=1;" edge="1" parent="1" source="QwHv8P3KIeqEhalfA5ab-25" target="QwHv8P3KIeqEhalfA5ab-32">
          <mxGeometry relative="1" as="geometry" />
        </mxCell>
        <mxCell id="QwHv8P3KIeqEhalfA5ab-25" value="Print: Enter first number" style="swimlane;fontStyle=0;childLayout=stackLayout;horizontal=1;startSize=30;horizontalStack=0;resizeParent=1;resizeParentMax=0;resizeLast=0;collapsible=1;marginBottom=0;whiteSpace=wrap;html=1;" vertex="1" parent="1">
          <mxGeometry x="520" y="130" width="140" height="60" as="geometry" />
        </mxCell>
        <mxCell id="QwHv8P3KIeqEhalfA5ab-26" value="X:" style="text;strokeColor=none;fillColor=none;align=left;verticalAlign=middle;spacingLeft=4;spacingRight=4;overflow=hidden;points=[[0,0.5],[1,0.5]];portConstraint=eastwest;rotatable=0;whiteSpace=wrap;html=1;" vertex="1" parent="QwHv8P3KIeqEhalfA5ab-25">
          <mxGeometry y="30" width="140" height="30" as="geometry" />
        </mxCell>
        <mxCell id="QwHv8P3KIeqEhalfA5ab-43" style="edgeStyle=orthogonalEdgeStyle;rounded=0;orthogonalLoop=1;jettySize=auto;html=1;entryX=0;entryY=0.5;entryDx=0;entryDy=0;" edge="1" parent="1" source="QwHv8P3KIeqEhalfA5ab-30" target="QwHv8P3KIeqEhalfA5ab-33">
          <mxGeometry relative="1" as="geometry" />
        </mxCell>
        <mxCell id="QwHv8P3KIeqEhalfA5ab-30" value="Print: Enter second number" style="swimlane;fontStyle=0;childLayout=stackLayout;horizontal=1;startSize=30;horizontalStack=0;resizeParent=1;resizeParentMax=0;resizeLast=0;collapsible=1;marginBottom=0;whiteSpace=wrap;html=1;" vertex="1" parent="1">
          <mxGeometry x="520" y="281" width="140" height="60" as="geometry" />
        </mxCell>
        <mxCell id="QwHv8P3KIeqEhalfA5ab-31" value="Y:" style="text;strokeColor=none;fillColor=none;align=left;verticalAlign=middle;spacingLeft=4;spacingRight=4;overflow=hidden;points=[[0,0.5],[1,0.5]];portConstraint=eastwest;rotatable=0;whiteSpace=wrap;html=1;" vertex="1" parent="QwHv8P3KIeqEhalfA5ab-30">
          <mxGeometry y="30" width="140" height="30" as="geometry" />
        </mxCell>
        <mxCell id="QwHv8P3KIeqEhalfA5ab-42" style="edgeStyle=orthogonalEdgeStyle;rounded=0;orthogonalLoop=1;jettySize=auto;html=1;" edge="1" parent="1" source="QwHv8P3KIeqEhalfA5ab-32" target="QwHv8P3KIeqEhalfA5ab-30">
          <mxGeometry relative="1" as="geometry">
            <Array as="points">
              <mxPoint x="790" y="230" />
              <mxPoint x="590" y="230" />
            </Array>
          </mxGeometry>
        </mxCell>
        <mxCell id="QwHv8P3KIeqEhalfA5ab-32" value="User Input Float" style="shape=parallelogram;perimeter=parallelogramPerimeter;whiteSpace=wrap;html=1;fixedSize=1;" vertex="1" parent="1">
          <mxGeometry x="710" y="130" width="160" height="60" as="geometry" />
        </mxCell>
        <mxCell id="QwHv8P3KIeqEhalfA5ab-46" style="edgeStyle=orthogonalEdgeStyle;rounded=0;orthogonalLoop=1;jettySize=auto;html=1;entryX=1;entryY=0.5;entryDx=0;entryDy=0;" edge="1" parent="1" source="QwHv8P3KIeqEhalfA5ab-33">
          <mxGeometry relative="1" as="geometry">
            <mxPoint x="630" y="440" as="targetPoint" />
            <Array as="points">
              <mxPoint x="780" y="440" />
            </Array>
          </mxGeometry>
        </mxCell>
        <mxCell id="QwHv8P3KIeqEhalfA5ab-33" value="User Input Float" style="shape=parallelogram;perimeter=parallelogramPerimeter;whiteSpace=wrap;html=1;fixedSize=1;" vertex="1" parent="1">
          <mxGeometry x="700" y="281" width="160" height="60" as="geometry" />
        </mxCell>
        <mxCell id="QwHv8P3KIeqEhalfA5ab-48" style="edgeStyle=orthogonalEdgeStyle;rounded=0;orthogonalLoop=1;jettySize=auto;html=1;" edge="1" parent="1">
          <mxGeometry relative="1" as="geometry">
            <mxPoint x="590" y="550.0000000000001" as="targetPoint" />
            <mxPoint x="590" y="480.0000000000001" as="sourcePoint" />
          </mxGeometry>
        </mxCell>
        <mxCell id="QwHv8P3KIeqEhalfA5ab-47" value="STOP" style="ellipse;whiteSpace=wrap;html=1;aspect=fixed;" vertex="1" parent="1">
          <mxGeometry x="550" y="780" width="80" height="80" as="geometry" />
        </mxCell>
        <mxCell id="QwHv8P3KIeqEhalfA5ab-63" style="edgeStyle=orthogonalEdgeStyle;rounded=0;orthogonalLoop=1;jettySize=auto;html=1;entryX=0.5;entryY=0;entryDx=0;entryDy=0;" edge="1" parent="1" source="QwHv8P3KIeqEhalfA5ab-49" target="QwHv8P3KIeqEhalfA5ab-58">
          <mxGeometry relative="1" as="geometry" />
        </mxCell>
        <mxCell id="QwHv8P3KIeqEhalfA5ab-49" value="Calculation" style="rounded=0;whiteSpace=wrap;html=1;" vertex="1" parent="1">
          <mxGeometry x="530" y="552" width="120" height="60" as="geometry" />
        </mxCell>
        <mxCell id="QwHv8P3KIeqEhalfA5ab-57" value="" style="shape=sumEllipse;perimeter=ellipsePerimeter;whiteSpace=wrap;html=1;backgroundOutline=1;" vertex="1" parent="1">
          <mxGeometry x="550" y="400" width="80" height="80" as="geometry" />
        </mxCell>
        <mxCell id="QwHv8P3KIeqEhalfA5ab-64" style="edgeStyle=orthogonalEdgeStyle;rounded=0;orthogonalLoop=1;jettySize=auto;html=1;" edge="1" parent="1" source="QwHv8P3KIeqEhalfA5ab-58" target="QwHv8P3KIeqEhalfA5ab-47">
          <mxGeometry relative="1" as="geometry" />
        </mxCell>
        <mxCell id="QwHv8P3KIeqEhalfA5ab-58" value="Print: Result" style="swimlane;fontStyle=0;childLayout=stackLayout;horizontal=1;startSize=30;horizontalStack=0;resizeParent=1;resizeParentMax=0;resizeLast=0;collapsible=1;marginBottom=0;whiteSpace=wrap;html=1;" vertex="1" parent="1">
          <mxGeometry x="520" y="670" width="140" height="30" as="geometry" />
        </mxCell>
      </root>
    </mxGraphModel>
  </diagram>
</mxfile>
